<?xml version="1.0" standalone="no"?>
<!DOCTYPE svg PUBLIC "-//W3C//DTD SVG 20010904//EN"
 "http://www.w3.org/TR/2001/REC-SVG-20010904/DTD/svg10.dtd">
<svg version="1.0" xmlns="http://www.w3.org/2000/svg"
 width="512.000000pt" height="512.000000pt" viewBox="0 0 512.000000 512.000000"
 preserveAspectRatio="xMidYMid meet">

<g transform="translate(0.000000,512.000000) scale(0.100000,-0.100000)"
fill="#000000" stroke="none">
<path d="M2295 5109 c-323 -41 -614 -183 -856 -416 l-106 -103 -366 0 -366 0
-28 -24 -28 -24 -3 -799 c-2 -587 1 -805 9 -826 24 -57 20 -57 598 -57 390 0
537 3 556 12 29 13 55 55 55 88 0 29 -26 76 -47 86 -10 5 -121 11 -247 14
l-229 5 -16 60 c-42 152 -164 301 -301 369 -41 20 -99 42 -128 48 l-52 13 0
171 0 171 62 17 c192 53 350 203 410 387 11 35 22 70 24 77 3 9 142 12 656 12
623 0 651 -1 618 -18 -79 -38 -158 -145 -175 -236 -6 -29 -11 -36 -24 -31 -45
18 -130 35 -171 35 -61 0 -152 -25 -205 -55 -62 -37 -142 -126 -172 -192 -38
-83 -43 -204 -13 -292 51 -153 169 -254 329 -282 224 -40 454 140 469 364 l4
73 87 -4 c82 -3 96 0 326 67 l240 71 40 -30 c64 -48 155 -96 228 -122 l67 -23
0 -80 0 -81 -68 -17 c-192 -50 -369 -231 -414 -424 l-13 -53 -252 0 c-272 0
-294 -4 -319 -51 -27 -52 -8 -115 41 -137 37 -17 1133 -17 1170 0 54 24 55 35
55 441 l0 374 98 6 c133 8 268 52 379 123 l53 34 0 -56 c0 -30 7 -68 15 -84
31 -60 40 -61 426 -58 l351 3 29 33 29 32 0 660 c0 490 -3 666 -12 685 -26 58
50 55 -1405 54 -736 -1 -1369 -6 -1408 -10z m1975 -590 l0 -401 -54 -51 c-119
-114 -250 -168 -426 -175 -98 -4 -129 -1 -195 17 -98 27 -171 66 -260 137 -47
37 -78 54 -97 54 -16 0 -144 -34 -285 -75 -297 -87 -329 -91 -378 -42 -39 39
-50 72 -41 122 14 74 31 82 432 199 203 59 412 120 464 136 97 30 131 53 144
97 11 35 -18 91 -57 109 -34 16 -38 16 -161 -20 l-126 -36 -801 0 -802 0 23
25 c66 71 278 190 420 238 74 24 201 53 270 60 19 2 461 5 983 5 l947 2 0
-401z m650 -134 l0 -535 -225 0 -225 0 0 535 0 535 225 0 225 0 0 -535z
m-3896 -17 c-33 -108 -137 -215 -245 -253 l-39 -14 0 144 0 145 146 0 145 0
-7 -22z m1194 -444 c79 -33 132 -110 132 -194 0 -125 -87 -214 -210 -214 -147
-1 -249 149 -196 287 41 108 170 165 274 121z m-1384 -611 c64 -33 138 -109
170 -177 14 -30 26 -60 26 -65 0 -7 -49 -11 -145 -11 l-145 0 0 146 0 145 23
-7 c12 -3 44 -18 71 -31z m2706 -108 l0 -145 -146 0 -145 0 7 23 c30 97 109
188 206 236 33 17 65 31 70 31 4 0 8 -65 8 -145z"/>
<path d="M2061 3046 c-59 -33 -67 -102 -17 -152 50 -50 115 -43 149 16 52 88
-42 186 -132 136z"/>
<path d="M1098 2644 c-15 -8 -32 -23 -38 -34 -6 -12 -10 -215 -10 -577 l0
-559 -32 -18 c-18 -11 -63 -43 -100 -73 -66 -52 -68 -53 -68 -28 0 39 -26 83
-60 100 -26 14 -80 15 -381 13 l-351 -3 -29 -33 -29 -32 0 -661 c0 -721 -1
-704 57 -728 22 -9 369 -11 1403 -8 1374 3 1375 3 1471 25 210 48 375 117 544
229 135 90 309 264 397 398 98 149 224 382 243 449 39 134 -19 279 -145 362
-49 33 -153 57 -206 49 l-44 -6 0 528 c0 483 -2 531 -18 563 -9 19 -28 40 -42
47 -20 10 -296 13 -1280 12 -1088 0 -1259 -2 -1282 -15z m802 -450 l0 -266 29
-29 c20 -20 39 -29 61 -29 18 0 114 35 214 78 l183 79 174 -78 c96 -43 189
-78 206 -78 22 -1 43 8 65 28 l33 29 3 266 3 266 325 0 324 0 0 -547 -1 -548
-165 -225 c-91 -124 -180 -240 -197 -258 -37 -39 -104 -88 -140 -101 l-24 -9
5 76 c3 62 0 88 -18 134 -28 75 -96 150 -168 185 l-57 28 -277 3 -276 3 -42
54 c-203 263 -565 389 -886 309 l-24 -6 0 451 0 451 325 0 325 0 0 -266z m770
101 c0 -114 -3 -165 -11 -165 -6 0 -63 23 -128 52 -64 28 -129 51 -146 51 -16
-1 -55 -12 -85 -26 -30 -13 -88 -38 -127 -55 l-73 -31 0 169 0 170 285 0 285
0 0 -165z m-1019 -930 c132 -34 290 -142 359 -245 19 -29 49 -68 67 -86 l31
-34 299 0 c278 0 300 -1 330 -20 75 -45 84 -148 19 -207 l-36 -33 -329 0
c-180 0 -342 -3 -360 -6 -80 -16 -109 -108 -52 -165 l29 -29 454 0 c509 0 512
0 656 71 124 61 191 130 405 422 103 140 198 259 213 267 36 20 100 17 132 -7
39 -28 64 -81 58 -121 -6 -38 -154 -311 -230 -422 -28 -41 -94 -118 -146 -170
-177 -177 -387 -292 -645 -353 -88 -21 -112 -21 -1072 -24 l-983 -4 0 386 0
386 24 47 c95 188 281 323 498 362 70 12 200 5 279 -15z m-1001 -630 l0 -535
-225 0 -225 0 0 535 0 535 225 0 225 0 0 -535z"/>
</g>
</svg>
