<?xml version="1.0" encoding="iso-8859-1"?>
<!-- Generator: Adobe Illustrator 16.0.0, SVG Export Plug-In . SVG Version: 6.00 Build 0)  -->
<!DOCTYPE svg PUBLIC "-//W3C//DTD SVG 1.1//EN" "http://www.w3.org/Graphics/SVG/1.1/DTD/svg11.dtd">
<svg version="1.1" id="Capa_1" xmlns="http://www.w3.org/2000/svg" xmlns:xlink="http://www.w3.org/1999/xlink" x="0px" y="0px"
height="25" width="25"	  viewBox="0 0 89.542 89.542" style="enable-background:new 0 0 89.542 89.542;"
	 xml:space="preserve">
<g>
	<path d="M58.82,76.426H19.152L0,43.246l4.045-2.335l17.799,30.845h34.274L74.6,39.743h14.941v4.671H77.296L58.82,76.426z
		 M30.106,78.21c-2.881,0-5.207,2.331-5.207,5.205s2.326,5.208,5.207,5.208c2.873,0,5.207-2.331,5.207-5.208
		C35.315,80.542,32.982,78.21,30.106,78.21z M49.337,78.215c-2.873-0.13-5.312,2.094-5.445,4.966
		c-0.133,2.872,2.095,5.308,4.969,5.44c2.869,0.137,5.306-2.095,5.438-4.966C54.435,80.784,52.209,78.352,49.337,78.215z
		 M63.327,0.914V54.09h-1.448l-5.181,4.599v1.59H41.92H31.094h-13.77V7.104l6.629-6.188L63.327,0.914L63.327,0.914z M61.575,2.762
		H24.912l-0.283,0.28l-0.675,0.657l-3.466,3.403h3.466h1.953v24.827l5.663-4.754l5.664,4.754V7.102h19.47v46.98v3.353l3.773-3.353
		l1.104-0.983V2.762H61.575z"/>
</g>
<g>
</g>
<g>
</g>
<g>
</g>
<g>
</g>
<g>
</g>
<g>
</g>
<g>
</g>
<g>
</g>
<g>
</g>
<g>
</g>
<g>
</g>
<g>
</g>
<g>
</g>
<g>
</g>
<g>
</g>
</svg>
