<svg id="Layer_1" enable-background="new 0 0 512.009 512.009"  viewBox="0 0 512.009 512.009" width="35" height="35" xmlns="http://www.w3.org/2000/svg"><g><path d="m336.438 184.602-43.158-12.031-24.778-37.325c-5.726-8.878-19.269-8.875-24.994 0l-24.778 37.325-43.158 12.031c-4.841 1.35-8.685 5.034-10.238 9.814s-.609 10.02 2.515 13.958l27.843 35.099-1.893 44.76c-.212 5.021 2.104 9.815 6.17 12.769 4.065 2.953 9.339 3.676 14.051 1.922l41.986-15.632 41.986 15.632c4.711 1.754 9.986 1.031 14.051-1.922 4.066-2.954 6.382-7.748 6.17-12.769l-1.893-44.76 27.843-35.099c3.124-3.938 4.067-9.178 2.515-13.958-1.555-4.78-5.399-8.464-10.24-9.814zm-47.093 44.602c-2.239 2.823-3.387 6.356-3.235 9.956l1.174 27.765-26.045-9.697c-3.376-1.257-7.092-1.257-10.468 0l-26.045 9.697 1.174-27.765c.152-3.6-.996-7.133-3.235-9.956l-17.271-21.772 26.771-7.463c3.47-.968 6.477-3.151 8.469-6.153l15.371-23.153 15.371 23.153c1.993 3.001 4.999 5.185 8.469 6.153l26.771 7.463z"/><path d="m507.611 395.521-58.503-58.509c87.86-145.752-21.906-338.68-193.106-337.001-171.176-1.686-280.981 191.282-193.101 337.001l-58.503 58.509c-3.676 3.676-5.187 8.993-3.992 14.053 1.194 5.06 4.924 9.14 9.855 10.784l61.048 20.347 20.347 61.048c1.644 4.932 5.724 8.661 10.784 9.855s10.377-.316 14.053-3.992l70.71-70.704c42.966 14.35 94.635 14.35 137.602 0l70.711 70.704c3.676 3.676 8.993 5.186 14.053 3.992s9.14-4.924 10.784-9.855l20.347-61.048 61.048-20.347c4.932-1.644 8.661-5.724 9.855-10.784 1.195-5.06-.316-10.377-3.992-14.053zm-395.163 73.721-15.051-45.142c-1.493-4.479-5.008-7.993-9.486-9.486l-45.138-15.047 37.313-37.312c20.666 26.163 47.157 47.639 76.936 62.413zm143.557-51.499c-106.898 0-193.867-86.968-193.867-193.867 10.649-257.191 377.123-257.116 387.734.002-.001 106.897-86.969 193.865-193.867 193.865zm168.093-3.129c-4.479 1.493-7.993 5.007-9.486 9.486l-15.05 45.142-44.573-44.574c29.779-14.773 56.27-36.25 76.936-62.413l37.312 37.312z"/><path d="m256.005 64.276c-88.004 0-159.6 71.596-159.6 159.6 8.767 211.731 310.466 211.67 319.201-.001-.001-88.003-71.597-159.599-159.601-159.599zm0 289.2c-71.462 0-129.6-58.138-129.6-129.6 7.119-171.932 252.108-171.882 259.2.001 0 71.461-58.138 129.599-129.6 129.599z"/></g></svg>